<mxfile host="app.diagrams.net" modified="2023-10-13T13:40:42.584Z" agent="Mozilla/5.0 (X11; Ubuntu; Linux x86_64; rv:109.0) Gecko/20100101 Firefox/118.0" etag="lzM2HR0QflAnFXdGfi9S" version="22.0.4" type="github">
  <diagram name="Halaman-1" id="zilbDKZJJUpH8MSBS8XR">
    <mxGraphModel dx="2491" dy="2614" grid="1" gridSize="10" guides="1" tooltips="1" connect="1" arrows="1" fold="1" page="1" pageScale="1" pageWidth="827" pageHeight="1169" math="0" shadow="0">
      <root>
        <mxCell id="0" />
        <mxCell id="1" parent="0" />
        <mxCell id="1EWsXfBTBYYLSL64HrE2-18" value="" style="group" vertex="1" connectable="0" parent="1">
          <mxGeometry x="92" y="-389" width="773" height="849" as="geometry" />
        </mxCell>
        <mxCell id="2" value="CNN" style="ellipse;aspect=fixed;strokeWidth=2;whiteSpace=wrap;fontSize=16;" parent="1EWsXfBTBYYLSL64HrE2-18" vertex="1">
          <mxGeometry x="255" y="273" width="184" height="184" as="geometry" />
        </mxCell>
        <mxCell id="3" value="preprocessing" style="rounded=1;absoluteArcSize=1;arcSize=14;whiteSpace=wrap;strokeWidth=2;" parent="1EWsXfBTBYYLSL64HrE2-18" vertex="1">
          <mxGeometry x="69" y="286" width="193" height="38" as="geometry" />
        </mxCell>
        <mxCell id="4" value="activation " style="rounded=1;absoluteArcSize=1;arcSize=14;whiteSpace=wrap;strokeWidth=2;" parent="1EWsXfBTBYYLSL64HrE2-18" vertex="1">
          <mxGeometry x="508" y="344" width="145" height="38" as="geometry" />
        </mxCell>
        <mxCell id="5" value="validation" style="rounded=1;absoluteArcSize=1;arcSize=14;whiteSpace=wrap;strokeWidth=2;" parent="1EWsXfBTBYYLSL64HrE2-18" vertex="1">
          <mxGeometry x="274.5" y="529" width="145" height="38" as="geometry" />
        </mxCell>
        <mxCell id="6" value="Clasification" style="rounded=1;absoluteArcSize=1;arcSize=14;whiteSpace=wrap;strokeWidth=2;" parent="1EWsXfBTBYYLSL64HrE2-18" vertex="1">
          <mxGeometry x="452" y="402" width="149" height="38" as="geometry" />
        </mxCell>
        <mxCell id="7" value="Â loss function" style="rounded=1;absoluteArcSize=1;arcSize=14;whiteSpace=wrap;strokeWidth=2;" parent="1EWsXfBTBYYLSL64HrE2-18" vertex="1">
          <mxGeometry x="435" y="285" width="166" height="38" as="geometry" />
        </mxCell>
        <mxCell id="8" value="training" style="rounded=1;absoluteArcSize=1;arcSize=14;whiteSpace=wrap;strokeWidth=2;" parent="1EWsXfBTBYYLSL64HrE2-18" vertex="1">
          <mxGeometry x="267.5" y="139" width="159" height="38" as="geometry" />
        </mxCell>
        <mxCell id="9" value="Convolution" style="rounded=1;absoluteArcSize=1;arcSize=14;whiteSpace=wrap;strokeWidth=2;" parent="1EWsXfBTBYYLSL64HrE2-18" vertex="1">
          <mxGeometry x="18" y="346" width="169" height="38" as="geometry" />
        </mxCell>
        <mxCell id="10" value="optimizing" style="rounded=1;absoluteArcSize=1;arcSize=14;whiteSpace=wrap;strokeWidth=2;" parent="1EWsXfBTBYYLSL64HrE2-18" vertex="1">
          <mxGeometry x="104" y="402" width="146" height="38" as="geometry" />
        </mxCell>
        <mxCell id="11" style="endArrow=none" parent="1EWsXfBTBYYLSL64HrE2-18" source="2" target="3" edge="1">
          <mxGeometry relative="1" as="geometry" />
        </mxCell>
        <mxCell id="12" style="endArrow=none" parent="1EWsXfBTBYYLSL64HrE2-18" source="2" target="4" edge="1">
          <mxGeometry relative="1" as="geometry" />
        </mxCell>
        <mxCell id="13" style="endArrow=none" parent="1EWsXfBTBYYLSL64HrE2-18" source="2" target="5" edge="1">
          <mxGeometry relative="1" as="geometry" />
        </mxCell>
        <mxCell id="14" style="endArrow=none" parent="1EWsXfBTBYYLSL64HrE2-18" source="2" target="6" edge="1">
          <mxGeometry relative="1" as="geometry" />
        </mxCell>
        <mxCell id="15" style="endArrow=none" parent="1EWsXfBTBYYLSL64HrE2-18" source="2" target="7" edge="1">
          <mxGeometry relative="1" as="geometry" />
        </mxCell>
        <mxCell id="16" style="endArrow=none" parent="1EWsXfBTBYYLSL64HrE2-18" source="2" target="8" edge="1">
          <mxGeometry relative="1" as="geometry" />
        </mxCell>
        <mxCell id="17" style="endArrow=none" parent="1EWsXfBTBYYLSL64HrE2-18" source="2" target="9" edge="1">
          <mxGeometry relative="1" as="geometry" />
        </mxCell>
        <mxCell id="18" style="endArrow=none" parent="1EWsXfBTBYYLSL64HrE2-18" source="2" target="10" edge="1">
          <mxGeometry relative="1" as="geometry" />
        </mxCell>
        <mxCell id="oh2pzYRxycgG0Qea43a3-25" value="" style="edgeStyle=orthogonalEdgeStyle;rounded=0;orthogonalLoop=1;jettySize=auto;html=1;" parent="1EWsXfBTBYYLSL64HrE2-18" source="oh2pzYRxycgG0Qea43a3-18" target="8" edge="1">
          <mxGeometry relative="1" as="geometry" />
        </mxCell>
        <mxCell id="oh2pzYRxycgG0Qea43a3-18" value="Rematik" style="ellipse;whiteSpace=wrap;html=1;rounded=1;arcSize=14;strokeWidth=2;" parent="1EWsXfBTBYYLSL64HrE2-18" vertex="1">
          <mxGeometry x="307" width="80" height="80" as="geometry" />
        </mxCell>
        <mxCell id="oh2pzYRxycgG0Qea43a3-20" value="Klasifikasi Penyakit" style="whiteSpace=wrap;html=1;rounded=1;arcSize=14;strokeWidth=2;" parent="1EWsXfBTBYYLSL64HrE2-18" vertex="1">
          <mxGeometry x="127" y="10" width="120" height="60" as="geometry" />
        </mxCell>
        <mxCell id="oh2pzYRxycgG0Qea43a3-21" value="" style="edgeStyle=orthogonalEdgeStyle;rounded=0;orthogonalLoop=1;jettySize=auto;html=1;entryX=0;entryY=0.5;entryDx=0;entryDy=0;exitX=1;exitY=0.5;exitDx=0;exitDy=0;" parent="1EWsXfBTBYYLSL64HrE2-18" source="oh2pzYRxycgG0Qea43a3-20" target="oh2pzYRxycgG0Qea43a3-18" edge="1">
          <mxGeometry relative="1" as="geometry" />
        </mxCell>
        <mxCell id="oh2pzYRxycgG0Qea43a3-22" value="Jumlah Data Sheet" style="whiteSpace=wrap;html=1;rounded=1;arcSize=14;strokeWidth=2;" parent="1EWsXfBTBYYLSL64HrE2-18" vertex="1">
          <mxGeometry x="447" y="10" width="120" height="60" as="geometry" />
        </mxCell>
        <mxCell id="oh2pzYRxycgG0Qea43a3-23" value="" style="edgeStyle=orthogonalEdgeStyle;rounded=0;orthogonalLoop=1;jettySize=auto;html=1;exitX=0;exitY=0.5;exitDx=0;exitDy=0;entryX=1;entryY=0.5;entryDx=0;entryDy=0;" parent="1EWsXfBTBYYLSL64HrE2-18" source="oh2pzYRxycgG0Qea43a3-22" target="oh2pzYRxycgG0Qea43a3-18" edge="1">
          <mxGeometry relative="1" as="geometry">
            <mxPoint x="408" y="39" as="sourcePoint" />
            <mxPoint x="408" y="79" as="targetPoint" />
          </mxGeometry>
        </mxCell>
        <mxCell id="oh2pzYRxycgG0Qea43a3-49" value="Model" style="whiteSpace=wrap;html=1;rounded=1;arcSize=14;strokeWidth=2;" parent="1EWsXfBTBYYLSL64HrE2-18" vertex="1">
          <mxGeometry x="287" y="649" width="120" height="60" as="geometry" />
        </mxCell>
        <mxCell id="oh2pzYRxycgG0Qea43a3-50" value="" style="edgeStyle=orthogonalEdgeStyle;rounded=0;orthogonalLoop=1;jettySize=auto;html=1;shape=link;" parent="1EWsXfBTBYYLSL64HrE2-18" source="5" target="oh2pzYRxycgG0Qea43a3-49" edge="1">
          <mxGeometry relative="1" as="geometry" />
        </mxCell>
        <mxCell id="oh2pzYRxycgG0Qea43a3-51" style="edgeStyle=orthogonalEdgeStyle;rounded=0;orthogonalLoop=1;jettySize=auto;html=1;entryX=1;entryY=0.5;entryDx=0;entryDy=0;" parent="1EWsXfBTBYYLSL64HrE2-18" source="6" target="oh2pzYRxycgG0Qea43a3-49" edge="1">
          <mxGeometry relative="1" as="geometry">
            <mxPoint x="528" y="459" as="sourcePoint" />
            <mxPoint x="458" y="719" as="targetPoint" />
            <Array as="points">
              <mxPoint x="519" y="679" />
            </Array>
          </mxGeometry>
        </mxCell>
        <mxCell id="oh2pzYRxycgG0Qea43a3-52" style="edgeStyle=orthogonalEdgeStyle;rounded=0;orthogonalLoop=1;jettySize=auto;html=1;entryX=-0.02;entryY=0.702;entryDx=0;entryDy=0;entryPerimeter=0;exitX=0;exitY=0.5;exitDx=0;exitDy=0;" parent="1EWsXfBTBYYLSL64HrE2-18" source="8" edge="1">
          <mxGeometry relative="1" as="geometry">
            <mxPoint x="269.9" y="149" as="sourcePoint" />
            <mxPoint x="286.9999999999999" y="682.1200000000001" as="targetPoint" />
            <Array as="points">
              <mxPoint y="158" />
              <mxPoint y="682" />
            </Array>
          </mxGeometry>
        </mxCell>
        <mxCell id="oh2pzYRxycgG0Qea43a3-53" value="Uji Data" style="whiteSpace=wrap;html=1;rounded=1;arcSize=14;strokeWidth=2;" parent="1EWsXfBTBYYLSL64HrE2-18" vertex="1">
          <mxGeometry x="287" y="789" width="120" height="60" as="geometry" />
        </mxCell>
        <mxCell id="oh2pzYRxycgG0Qea43a3-56" value="RelU" style="rounded=1;absoluteArcSize=1;arcSize=18;whiteSpace=wrap;strokeWidth=2;" parent="1EWsXfBTBYYLSL64HrE2-18" vertex="1">
          <mxGeometry x="708" y="349" width="65" height="28" as="geometry" />
        </mxCell>
        <mxCell id="oh2pzYRxycgG0Qea43a3-66" value="" style="edgeStyle=orthogonalEdgeStyle;rounded=0;orthogonalLoop=1;jettySize=auto;html=1;exitX=1;exitY=0.5;exitDx=0;exitDy=0;entryX=0;entryY=0.429;entryDx=0;entryDy=0;entryPerimeter=0;" parent="1EWsXfBTBYYLSL64HrE2-18" source="4" target="oh2pzYRxycgG0Qea43a3-60" edge="1">
          <mxGeometry relative="1" as="geometry">
            <mxPoint x="698" y="439" as="targetPoint" />
            <Array as="points">
              <mxPoint x="678" y="363" />
              <mxPoint x="678" y="439" />
            </Array>
          </mxGeometry>
        </mxCell>
        <mxCell id="oh2pzYRxycgG0Qea43a3-60" value="Tanh" style="rounded=1;absoluteArcSize=1;arcSize=18;whiteSpace=wrap;strokeWidth=2;" parent="1EWsXfBTBYYLSL64HrE2-18" vertex="1">
          <mxGeometry x="708" y="427" width="65" height="28" as="geometry" />
        </mxCell>
        <mxCell id="oh2pzYRxycgG0Qea43a3-71" value="" style="edgeStyle=orthogonalEdgeStyle;rounded=0;orthogonalLoop=1;jettySize=auto;html=1;exitX=1;exitY=0.5;exitDx=0;exitDy=0;" parent="1EWsXfBTBYYLSL64HrE2-18" source="4" target="oh2pzYRxycgG0Qea43a3-70" edge="1">
          <mxGeometry relative="1" as="geometry">
            <Array as="points">
              <mxPoint x="678" y="363" />
              <mxPoint x="678" y="177" />
            </Array>
          </mxGeometry>
        </mxCell>
        <mxCell id="oh2pzYRxycgG0Qea43a3-62" value="Sigmoid" style="rounded=1;absoluteArcSize=1;arcSize=18;whiteSpace=wrap;strokeWidth=2;" parent="1EWsXfBTBYYLSL64HrE2-18" vertex="1">
          <mxGeometry x="708" y="271" width="65" height="28" as="geometry" />
        </mxCell>
        <mxCell id="oh2pzYRxycgG0Qea43a3-65" value="softmax" style="rounded=1;absoluteArcSize=1;arcSize=18;whiteSpace=wrap;strokeWidth=2;" parent="1EWsXfBTBYYLSL64HrE2-18" vertex="1">
          <mxGeometry x="708" y="535" width="65" height="28" as="geometry" />
        </mxCell>
        <mxCell id="oh2pzYRxycgG0Qea43a3-70" value="Sigmoid" style="rounded=1;absoluteArcSize=1;arcSize=18;whiteSpace=wrap;strokeWidth=2;" parent="1EWsXfBTBYYLSL64HrE2-18" vertex="1">
          <mxGeometry x="708" y="163" width="65" height="28" as="geometry" />
        </mxCell>
        <mxCell id="oh2pzYRxycgG0Qea43a3-54" value="" style="edgeStyle=orthogonalEdgeStyle;rounded=0;orthogonalLoop=1;jettySize=auto;html=1;shape=link;" parent="1EWsXfBTBYYLSL64HrE2-18" source="oh2pzYRxycgG0Qea43a3-49" target="oh2pzYRxycgG0Qea43a3-53" edge="1">
          <mxGeometry relative="1" as="geometry" />
        </mxCell>
        <mxCell id="oh2pzYRxycgG0Qea43a3-64" value="" style="edgeStyle=orthogonalEdgeStyle;rounded=0;orthogonalLoop=1;jettySize=auto;html=1;" parent="1EWsXfBTBYYLSL64HrE2-18" source="4" target="oh2pzYRxycgG0Qea43a3-56" edge="1">
          <mxGeometry relative="1" as="geometry" />
        </mxCell>
        <mxCell id="oh2pzYRxycgG0Qea43a3-67" value="" style="edgeStyle=orthogonalEdgeStyle;rounded=0;orthogonalLoop=1;jettySize=auto;html=1;" parent="1EWsXfBTBYYLSL64HrE2-18" source="4" target="oh2pzYRxycgG0Qea43a3-56" edge="1">
          <mxGeometry relative="1" as="geometry" />
        </mxCell>
        <mxCell id="oh2pzYRxycgG0Qea43a3-59" value="" style="edgeStyle=orthogonalEdgeStyle;rounded=0;orthogonalLoop=1;jettySize=auto;html=1;entryX=0;entryY=0.5;entryDx=0;entryDy=0;" parent="1EWsXfBTBYYLSL64HrE2-18" source="4" target="oh2pzYRxycgG0Qea43a3-62" edge="1">
          <mxGeometry relative="1" as="geometry">
            <mxPoint x="678" y="269" as="targetPoint" />
            <Array as="points">
              <mxPoint x="678" y="363" />
              <mxPoint x="678" y="285" />
            </Array>
          </mxGeometry>
        </mxCell>
        <mxCell id="oh2pzYRxycgG0Qea43a3-57" value="" style="edgeStyle=orthogonalEdgeStyle;rounded=0;orthogonalLoop=1;jettySize=auto;html=1;entryX=0;entryY=0.25;entryDx=0;entryDy=0;" parent="1EWsXfBTBYYLSL64HrE2-18" source="4" target="oh2pzYRxycgG0Qea43a3-65" edge="1">
          <mxGeometry relative="1" as="geometry">
            <mxPoint x="708" y="439" as="targetPoint" />
            <Array as="points">
              <mxPoint x="678" y="363" />
              <mxPoint x="678" y="542" />
            </Array>
          </mxGeometry>
        </mxCell>
      </root>
    </mxGraphModel>
  </diagram>
</mxfile>
